# xmcd CD database file
#
# Track frame offsets:
#	150
#	16227
#	40135
#	54651
#	76118
#	88496
#	111409
#	127696
#	146909
#
# Disc length: 2137 seconds
#
# Revision: 1
# Processed by: cddbd v1.5.2PL0 Copyright (c) Steve Scherf et al.
# Submitted via: CDex 1.51
#
DISCID=74085709
DTITLE=Sarah Vaughan - Sarah Vaughan at Mister Kelly's [Remastered 2007]
DYEAR=1957
DGENRE=Jazz
TTITLE0=September in the Rain
TTITLE1=Willow Weep for Me
TTITLE2=Just One of Those Things
TTITLE3=Be Anything But Darling Be Mine
TTITLE4=Thou Swell
TTITLE5=Stairway to the Stars
TTITLE6=Honeysuckle Rose
TTITLE7=Just a Gigolo
TTITLE8=How High the Moon
EXTD=YEAR: 1957
EXTT0=
EXTT1=
EXTT2=
EXTT3=
EXTT4=
EXTT5=
EXTT6=
EXTT7=
EXTT8=
PLAYORDER=
